<svg width="11px" height="9px" viewBox="0 0 110 90" version="1.1" xmlns="http://www.w3.org/2000/svg">
<g id="#ffffffff">
<path fill="#ffffff" opacity="1.00" d=" M 99.58 10.50 C 101.12 8.24 104.49 7.50 106.71 9.20 C 109.28 10.93 109.42 14.88 107.20 16.96 C 87.49 39.97 67.76 62.97 48.06 85.98 C 46.39 88.13 43.94 89.49 41.28 90.00 L 38.96 90.00 C 37.17 89.69 35.45 89.05 33.96 88.00 C 24.17 81.44 14.33 74.94 4.55 68.36 C 2.39 67.06 1.55 64.01 2.82 61.81 C 4.09 59.27 7.71 58.33 10.02 60.03 C 20.03 66.65 29.99 73.35 39.99 79.99 C 59.88 56.85 79.71 33.66 99.58 10.50 Z" />
</g>
</svg>
